<svg xmlns="http://www.w3.org/2000/svg" width="154" height="154" viewBox="0 0 154 154">
  <path id="Icon_awesome-check-circle" data-name="Icon awesome-check-circle" d="M154.563,77.563a77,77,0,1,1-77-77A77,77,0,0,1,154.563,77.563ZM68.656,118.333,125.785,61.2a4.968,4.968,0,0,0,0-7.025l-7.025-7.025a4.968,4.968,0,0,0-7.026,0L65.143,93.744,43.391,71.992a4.968,4.968,0,0,0-7.026,0L29.34,79.017a4.968,4.968,0,0,0,0,7.025l32.29,32.29a4.968,4.968,0,0,0,7.026,0Z" transform="translate(-0.563 -0.563)" fill="#2a9d8f"/>
</svg>
