<svg xmlns="http://www.w3.org/2000/svg" width="152.354" height="152.354" viewBox="0 0 152.354 152.354">
  <path id="Icon_ionic-ios-alert" data-name="Icon ionic-ios-alert" d="M79.552,3.375a76.177,76.177,0,1,0,76.177,76.177A76.165,76.165,0,0,0,79.552,3.375Zm6.3,40.139L84.716,85.668a5.241,5.241,0,0,1-5.164,5.42h0a5.241,5.241,0,0,1-5.164-5.42L73.253,43.514a6.308,6.308,0,0,1,6.3-6.446h0A6.309,6.309,0,0,1,85.851,43.514Zm-6.3,71.928a6.743,6.743,0,1,1,7-6.739A6.8,6.8,0,0,1,79.552,115.443Z" transform="translate(-3.375 -3.375)" fill="#e76f51"/>
</svg>
