<svg xmlns="http://www.w3.org/2000/svg" width="183.3" height="183.3" viewBox="0 0 183.3 183.3">
  <g id="Group_6954" data-name="Group 6954" transform="translate(-691.059 -646.5)">
    <path id="path3263" d="M349.943,434.094a84.15,84.15,0,1,1,84.151-84.149A84.15,84.15,0,0,1,349.943,434.094Z" transform="translate(432.765 388.206)" fill="none" stroke="#fef9e2" stroke-width="15" opacity="0.76"/>
    <path id="Icon_awesome-praying-hands" data-name="Icon awesome-praying-hands" d="M52.878,37.309a6.239,6.239,0,0,0-6.221,6.221V59.083a3.11,3.11,0,0,1-6.221,0V44.2A18.635,18.635,0,0,1,43.1,34.6L58.213,9.406A6.183,6.183,0,0,0,47.857,2.661c-.039.045-.121.041-.154.093l-22.8,34.2A18.6,18.6,0,0,0,21.773,47.3v15.6l-17.52,5.84A6.216,6.216,0,0,0,0,74.635V93.3a6.222,6.222,0,0,0,7.788,6.021l34.835-9.063A22.813,22.813,0,0,0,59.1,68.414V43.53A6.239,6.239,0,0,0,52.878,37.309ZM120.165,68.75l-17.52-5.84v-15.6a18.6,18.6,0,0,0-3.134-10.348L76.716,2.771c-.035-.052-.115-.047-.154-.093A6.182,6.182,0,0,0,66.206,9.424L81.321,34.617a18.635,18.635,0,0,1,2.661,9.6V59.1a3.11,3.11,0,1,1-6.221,0V43.548a6.221,6.221,0,0,0-12.442,0V68.431A22.808,22.808,0,0,0,81.8,90.271l34.835,9.063a6.222,6.222,0,0,0,7.788-6.021V74.65a6.22,6.22,0,0,0-4.254-5.9Z" transform="translate(720.5 680.938)" fill="#fef9e2" opacity="0.76"/>
  </g>
</svg>
