<svg xmlns="http://www.w3.org/2000/svg" width="125.062" height="125.062" viewBox="0 0 125.062 125.062">
  <g id="Group_6036" data-name="Group 6036" transform="translate(3470.5 95.355)" opacity="0.08">
    <path id="path3263" d="M320.825,375.856a55.031,55.031,0,1,1,55.032-55.031A55.031,55.031,0,0,1,320.825,375.856Z" transform="translate(-3728.794 -353.65)" fill="none" stroke="#2a9d8f" stroke-width="15"/>
    <path id="path3267" d="M144.226,69.375V80.3c-4.421,0-24.309,5.632-24.309,23.689,0,16.064,14.351,20.436,24.3,21.871l.01,18.153c-7.263-2.073-8.583-7.661-9.591-12.28H118.688c.987,18.066,16.854,26.468,25.538,27.744v11.114h15.159V159.645c12-.638,26.21-11,26.21-25.2,0-16.266-14.155-20.883-26.21-22.124V95.68c4.743.336,8.445,5.042,8.845,9.833h15.789c0-16.136-14.681-24.624-24.792-25.212V69.375Zm.084,26.462V109.63C133.624,109.462,133.416,97.751,144.31,95.837Zm15.253,32.618c13.224.336,14.688,13.532-.021,15.642Z" transform="translate(-3560.221 -152.807)" fill="#2a9d8f"/>
  </g>
</svg>
