<svg xmlns="http://www.w3.org/2000/svg" width="125.062" height="125.062" viewBox="0 0 125.062 125.062">
  <g id="Group_6951" data-name="Group 6951" transform="translate(-764.605 -720)">
    <path id="Icon_map-food" data-name="Icon map-food" d="M73.714,19.941l-6,47.011H47.46L41.487,19.707h24.73L71.1,2.825l2.771.835-4.69,16.247,4.528.035Zm-35.09,27.2s.757-6.1-9.746-6.1H12.149c-10.489,0-9.746,6.1-9.746,6.1H38.624ZM2.4,60.856s-.742,6.1,9.746,6.1h16.73c10.5,0,9.746-6.1,9.746-6.1H2.4Zm34.65-3.048c1.719,0,3.108-1.7,3.108-3.809s-1.388-3.812-3.108-3.812H3.829C2.118,50.188.72,51.877.72,54s1.4,3.809,3.109,3.809H37.052Z" transform="translate(788.838 744.398)" fill="#e9c46a" opacity="0.21"/>
    <path id="path3263" d="M320.825,375.856a55.031,55.031,0,1,1,55.032-55.031A55.031,55.031,0,0,1,320.825,375.856Z" transform="translate(506.311 461.706)" fill="none" stroke="#e9c46a" stroke-width="15" opacity="0.21"/>
  </g>
</svg>
