<svg xmlns="http://www.w3.org/2000/svg" width="183.3" height="183.3" viewBox="0 0 183.3 183.3">
  <g id="Group_6831" data-name="Group 6831" transform="translate(-503.605 -735.697)" opacity="0.58">
    <path id="Icon_map-food" data-name="Icon map-food" d="M112.337,29l-9.171,71.887H72.192L63.059,28.64h37.815l7.474-25.815L112.584,4.1l-7.171,24.843,6.924.054ZM58.68,70.589s1.158-9.322-14.9-9.322H18.2c-16.038,0-14.9,9.322-14.9,9.322H58.68ZM3.293,91.563s-1.135,9.322,14.9,9.322H43.778c16.062,0,14.9-9.322,14.9-9.322H3.293ZM56.277,86.9c2.629,0,4.752-2.6,4.752-5.824,0-3.246-2.123-5.829-4.752-5.829H5.474C2.857,75.25.72,77.832.72,81.078c0,3.228,2.137,5.824,4.754,5.824h50.8Z" transform="translate(537.073 777.022)" fill="#2a9d8f" opacity="0.21"/>
    <path id="path3263" d="M349.943,434.094a84.15,84.15,0,1,1,84.151-84.149A84.15,84.15,0,0,1,349.943,434.094Z" transform="translate(245.311 477.403)" fill="none" stroke="#2a9d8f" stroke-width="15" opacity="0.15"/>
  </g>
</svg>
