<svg xmlns="http://www.w3.org/2000/svg" width="95.207" height="127.013" viewBox="0 0 95.207 127.013">
  <g id="Santa_Bag_1" transform="translate(-3 0.013)" opacity="0.21">
    <g id="Group_6035" data-name="Group 6035" transform="translate(3 -0.013)">
      <path id="Path_12957" data-name="Path 12957" d="M87.628,53.81C87.628,25.671,81.017,7,50.6,7S13.579,25.671,13.579,53.81C11.463,57.036,3,70.577,3,81.05c0,13.8,29.831,15.868,47.6,15.868s47.6-2.063,47.6-15.868C98.207,70.471,89.744,57.036,87.628,53.81Z" transform="translate(-3 30.096)" fill="#e76f51"/>
      <path id="Path_12958" data-name="Path 12958" d="M13.78,32.957a2.639,2.639,0,0,0,2.274,1.269h.793A55.381,55.381,0,0,1,33.4,31.793a55.573,55.573,0,0,1,15.55,2.063,2.646,2.646,0,0,0,3.174-1.534l1.851-4.76A54.209,54.209,0,0,0,59.85,10.636,9.945,9.945,0,0,0,50.583.058a10.854,10.854,0,0,0-1.312,0A7.251,7.251,0,0,0,41.39,4.924a1.886,1.886,0,0,0,0,.423c-.264,0-.476,0-1.322-1.111A10.568,10.568,0,0,0,30.759.058c-7.088,0-10.9,7.035-12.377,10.579-7.141,0-11.372,3.121-11.372,7.934A27.952,27.952,0,0,0,12.3,30.841Z" transform="translate(14.2 0.013)" fill="#e76f51"/>
    </g>
  </g>
</svg>
